<?xml version="1.0" standalone="no"?>
<!DOCTYPE svg PUBLIC "-//W3C//DTD SVG 20010904//EN"
 "http://www.w3.org/TR/2001/REC-SVG-20010904/DTD/svg10.dtd">
<svg version="1.0" xmlns="http://www.w3.org/2000/svg"
 width="100.000000pt" height="100.000000pt" viewBox="0 0 200.000000 200.000000"
 preserveAspectRatio="xMidYMid meet">

<g transform="translate(0.000000,200.000000) scale(0.100000,-0.100000)"
fill="#000000" stroke="none">
<path d="M893 1572 c-74 -27 -131 -69 -169 -127 -109 -166 -46 -389 136 -473
78 -37 183 -37 260 -1 79 37 125 81 161 154 59 120 37 260 -54 362 -78 86
-226 124 -334 85z m206 -92 c76 -39 131 -122 131 -196 0 -31 -2 -35 -15 -24
-8 7 -15 25 -15 41 0 33 -15 44 -52 40 -18 -2 -30 4 -38 18 -15 29 -36 26 -71
-8 -23 -24 -29 -38 -29 -73 0 -51 13 -68 52 -68 32 0 32 0 45 -89 l9 -64 -35
-14 c-93 -39 -216 -6 -278 75 -51 67 -72 171 -25 124 22 -22 52 -30 52 -13 0
6 15 11 32 13 24 2 36 10 45 29 7 15 24 34 38 43 30 20 31 26 5 54 l-21 22 25
0 c46 0 50 62 5 89 -27 16 -29 20 -13 24 32 9 115 -3 153 -23z m-212 -101
c-16 -26 -32 -18 -30 16 1 16 -3 35 -9 43 -9 10 -8 16 2 22 22 14 53 -55 37
-81z"/>
<path d="M652 923 c2 -10 10 -18 18 -18 8 0 16 8 18 18 2 12 -3 17 -18 17 -15
0 -20 -5 -18 -17z"/>
<path d="M580 901 c0 -24 -3 -28 -20 -24 -35 9 -50 -14 -50 -77 0 -68 10 -79
68 -78 l42 0 0 104 c0 97 -1 104 -20 104 -15 0 -20 -7 -20 -29z m0 -101 c0
-45 -4 -60 -14 -60 -17 0 -26 22 -26 60 0 38 9 60 26 60 10 0 14 -15 14 -60z"/>
<path d="M1640 825 c0 -85 3 -105 15 -105 11 0 15 16 17 68 2 52 6 67 18 67
12 0 16 -15 18 -67 2 -52 6 -68 18 -68 12 0 14 14 12 78 l-3 77 -32 0 c-29 0
-33 3 -33 27 0 18 -5 28 -15 28 -12 0 -15 -18 -15 -105z"/>
<path d="M16 904 c-24 -23 -20 -38 24 -90 42 -48 46 -67 16 -72 -11 -2 -19 4
-23 17 -7 26 -33 28 -33 3 0 -27 20 -42 55 -42 65 0 73 50 19 110 -23 25 -34
46 -30 56 8 22 30 12 34 -15 4 -25 25 -23 30 3 8 41 -59 63 -92 30z"/>
<path d="M153 903 c-4 -10 -11 -21 -17 -25 -8 -6 -7 -10 1 -16 7 -4 13 -36 15
-72 3 -63 4 -65 31 -68 29 -4 37 12 12 22 -11 4 -15 21 -15 61 0 42 3 55 15
55 8 0 15 5 15 10 0 6 -7 10 -15 10 -8 0 -15 9 -15 20 0 25 -18 26 -27 3z"/>
<path d="M1000 911 c0 -5 9 -11 20 -14 18 -5 20 -14 20 -91 0 -70 3 -86 15
-86 12 0 15 16 15 86 0 77 2 86 20 91 39 10 19 23 -35 23 -30 0 -55 -4 -55 -9z"/>
<path d="M1550 900 c0 -11 -4 -20 -8 -20 -11 0 -2 -119 10 -142 9 -19 58 -25
58 -8 0 6 -7 10 -15 10 -12 0 -15 13 -15 60 0 47 3 60 15 60 8 0 15 5 15 10 0
6 -7 10 -15 10 -8 0 -15 9 -15 20 0 11 -7 20 -15 20 -8 0 -15 -9 -15 -20z"/>
<path d="M242 868 c-15 -15 -16 -38 -1 -38 7 0 17 7 24 17 7 9 17 13 23 9 20
-12 13 -36 -11 -45 -32 -12 -49 -36 -45 -63 3 -20 9 -23 51 -25 l48 -2 -3 77
-3 77 -35 3 c-19 2 -41 -3 -48 -10z m58 -97 c0 -24 -18 -37 -31 -24 -13 13 -1
43 17 43 8 0 14 -9 14 -19z"/>
<path d="M370 799 c0 -62 3 -79 15 -79 11 0 15 16 17 67 2 55 6 68 21 71 15 3
17 -5 17 -67 0 -64 2 -71 20 -71 18 0 20 7 20 69 0 80 -8 90 -68 89 l-42 0 0
-79z"/>
<path d="M650 800 c0 -73 2 -80 20 -80 18 0 20 7 20 80 0 73 -2 80 -20 80 -18
0 -20 -7 -20 -80z"/>
<path d="M730 799 c0 -62 3 -79 15 -79 11 0 15 16 17 68 2 52 6 67 18 67 12 0
16 -15 18 -67 2 -52 6 -68 18 -68 12 0 14 14 12 78 l-3 77 -47 2 -48 2 0 -80z"/>
<path d="M875 857 c-4 -13 -5 -46 -3 -73 3 -47 4 -49 36 -52 20 -2 32 -9 32
-18 0 -20 -30 -30 -40 -14 -10 17 -31 4 -23 -15 6 -18 64 -20 81 -3 8 8 12 46
12 103 l0 91 -45 2 c-39 1 -45 -1 -50 -21z m60 -53 c0 -37 -4 -49 -15 -49 -16
0 -27 63 -16 92 12 31 31 6 31 -43z"/>
<path d="M1140 861 c-5 -11 -10 -38 -10 -61 0 -57 14 -80 50 -80 42 0 64 37
57 96 -2 26 -11 50 -18 55 -25 16 -68 10 -79 -10z m58 -58 c-4 -81 -28 -85
-28 -4 0 48 3 61 15 61 13 0 15 -11 13 -57z"/>
<path d="M1270 854 c-13 -32 -13 -66 0 -98 7 -20 16 -26 40 -26 20 0 30 -5 30
-15 0 -19 -32 -33 -38 -17 -6 19 -34 14 -30 -5 2 -12 14 -19 36 -21 54 -5 62
9 62 113 l0 92 -45 1 c-40 1 -47 -2 -55 -24z m65 -50 c0 -37 -4 -49 -15 -49
-16 0 -27 63 -16 92 12 31 31 6 31 -43z"/>
<path d="M1419 863 c-8 -9 -14 -37 -14 -63 0 -26 6 -54 14 -63 25 -31 91 -16
91 20 0 18 -20 16 -35 -4 -14 -19 -35 -9 -35 17 0 14 8 20 33 22 27 2 33 8 35
31 2 16 -2 35 -9 43 -16 19 -63 18 -80 -3z m56 -29 c0 -10 -8 -20 -17 -22 -18
-3 -26 27 -11 42 12 11 28 0 28 -20z"/>
<path d="M1792 868 c-7 -7 -12 -37 -12 -68 0 -31 5 -61 12 -68 26 -26 88 -8
88 25 0 18 -20 16 -35 -4 -14 -19 -35 -9 -35 17 0 14 8 20 33 22 27 2 33 8 35
31 2 16 -2 35 -9 43 -14 17 -60 19 -77 2z m53 -34 c0 -10 -8 -20 -17 -22 -18
-3 -26 27 -11 42 12 11 28 0 28 -20z"/>
<path d="M1910 799 c0 -72 2 -79 20 -79 18 0 20 7 20 70 0 40 4 70 10 70 6 0
10 -7 10 -15 0 -8 7 -15 16 -15 10 0 14 7 12 23 -2 18 -10 22 -45 24 l-43 2 0
-80z"/>
</g>
</svg>
